<svg width="600" height="400" viewBox="0 0 600 400" fill="none" xmlns="http://www.w3.org/2000/svg">
<path d="M300 22C247.534 22 205 75.1685 205 140.75C205 206.332 247.534 259.5 300 259.5C352.466 259.5 395 206.332 395 140.75C395 75.1685 352.466 22 300 22ZM300 243.667C256.348 243.667 220.833 197.496 220.833 140.75C220.833 84.0036 256.348 37.8333 300 37.8333C343.652 37.8333 379.167 84.0036 379.167 140.75C379.167 197.496 343.652 243.667 300 243.667Z" fill="black"/>
<path d="M180.475 194.19C183.481 213.673 180.475 194.19 183.481 213.673C125.803 217.276 117.956 219.287 113.475 231.597C110.376 240.111 115.017 253.442 125.429 257.231L426.13 366.678C436.541 370.467 448.665 363.238 451.764 354.724C456.244 342.414 438.395 327.164 405.434 292.531C421.628 281.963 405.434 292.531 421.628 281.963C451.26 316.854 482.241 329.464 470.558 361.564C463.717 380.358 440.05 393.028 419.289 385.471L118.588 276.025C97.8269 268.469 87.8402 243.55 94.6806 224.756C106.364 192.656 133.129 199.888 180.475 194.19Z" fill="black"/>
<path d="M170.166 260C179.654 277.28 170.166 260 179.654 277.28C126.688 300.393 120.001 304.966 120.001 318.066C120.001 327.126 128.921 338.066 140.001 338.066H460C471.08 338.066 480 327.126 480 318.066C480 304.966 458.011 296.74 415.193 275.47C426.796 260 415.193 275.47 426.796 260C466.575 282.652 500 283.906 500 318.066C500 338.066 482.093 358.066 460 358.066H140C117.907 358.066 100 338.066 100 318.066C100 283.906 127.624 281.547 170.166 260Z" fill="black" fill-opacity="0.1"/>
<path d="M300 22C247.534 22 205 75.1685 205 140.75C205 206.332 247.534 259.5 300 259.5C352.466 259.5 395 206.332 395 140.75C395 75.1685 352.466 22 300 22ZM300 243.667C256.348 243.667 220.833 197.496 220.833 140.75C220.833 84.0036 256.348 37.8333 300 37.8333C343.652 37.8333 379.167 84.0036 379.167 140.75C379.167 197.496 343.652 243.667 300 243.667Z" fill="black" fill-opacity="0.1"/>
</svg>
