<svg width="600" height="400" viewBox="0 0 600 400" fill="none" xmlns="http://www.w3.org/2000/svg">
<g clip-path="url(#clip0)">
<path d="M170.166 260C179.654 277.28 170.166 260 179.654 277.28C126.688 300.393 120.001 304.966 120.001 318.066C120.001 327.126 128.921 338.066 140.001 338.066H460C471.08 338.066 480 327.126 480 318.066C480 304.966 458.011 296.74 415.193 275.47C426.796 260 415.193 275.47 426.796 260C466.575 282.652 500 283.906 500 318.066C500 338.066 482.093 358.066 460 358.066H140C117.907 358.066 100 338.066 100 318.066C100 283.906 127.624 281.547 170.166 260Z" fill="black"/>
<path d="M359.375 38.9094C313.938 12.6762 250.518 37.4547 217.728 94.2499C184.937 151.045 195.188 218.357 240.625 244.59C286.062 270.824 349.482 246.045 382.272 189.25C415.063 132.455 404.812 65.1427 359.375 38.9094ZM248.542 230.878C210.738 209.052 203.066 151.31 231.44 102.167C259.813 53.0228 313.654 30.7953 351.458 52.6215C389.262 74.4477 396.934 132.189 368.56 181.333C340.187 230.477 286.346 252.705 248.542 230.878Z" fill="black"/>
<path d="M170.166 260C179.654 277.28 170.166 260 179.654 277.28C126.688 300.393 120.001 304.966 120.001 318.066C120.001 327.126 128.921 338.066 140.001 338.066H460C471.08 338.066 480 327.126 480 318.066C480 304.966 458.011 296.74 415.193 275.47C426.796 260 415.193 275.47 426.796 260C466.575 282.652 500 283.906 500 318.066C500 338.066 482.093 358.066 460 358.066H140C117.907 358.066 100 338.066 100 318.066C100 283.906 127.624 281.547 170.166 260Z" fill="black" fill-opacity="0.1"/>
<path d="M300 22C247.534 22 205 75.1685 205 140.75C205 206.332 247.534 259.5 300 259.5C352.466 259.5 395 206.332 395 140.75C395 75.1685 352.466 22 300 22ZM300 243.667C256.348 243.667 220.833 197.496 220.833 140.75C220.833 84.0036 256.348 37.8333 300 37.8333C343.652 37.8333 379.167 84.0036 379.167 140.75C379.167 197.496 343.652 243.667 300 243.667Z" fill="black" fill-opacity="0.1"/>
</g>
<defs>
<clipPath id="clip0">
<rect width="600" height="400" fill="white"/>
</clipPath>
</defs>
</svg>
