<svg width="600" height="400" viewBox="0 0 600 400" fill="none" xmlns="http://www.w3.org/2000/svg">
<g clip-path="url(#clip0)">
<path d="M382.022 41.5C336.585 15.2668 273.166 40.0452 240.375 96.8405C207.584 153.636 217.835 220.948 263.272 247.181C308.71 273.414 372.129 248.636 404.92 191.841C437.711 135.045 427.46 67.7332 382.022 41.5ZM271.189 233.469C233.385 211.643 225.714 153.901 254.087 104.757C282.46 55.6133 336.302 33.3859 374.106 55.2121C411.91 77.0383 419.581 134.78 391.208 183.924C362.835 233.068 308.993 255.295 271.189 233.469Z" fill="black"/>
<path d="M187.475 194.19C190.481 213.673 187.475 194.19 190.481 213.673C132.803 217.276 124.956 219.287 120.475 231.597C117.376 240.111 122.017 253.442 132.429 257.231L433.13 366.678C443.541 370.467 455.665 363.238 458.764 354.724C463.244 342.414 445.395 327.164 412.434 292.531C428.628 281.963 412.434 292.531 428.628 281.963C458.26 316.854 489.241 329.464 477.558 361.564C470.717 380.358 447.05 393.028 426.289 385.471L125.588 276.025C104.827 268.469 94.8402 243.55 101.681 224.756C113.364 192.656 140.129 199.888 187.475 194.19Z" fill="black"/>
<path d="M170.166 260C179.654 277.28 170.166 260 179.654 277.28C126.688 300.393 120.001 304.966 120.001 318.066C120.001 327.126 128.921 338.066 140.001 338.066H460C471.08 338.066 480 327.126 480 318.066C480 304.966 458.011 296.74 415.193 275.47C426.796 260 415.193 275.47 426.796 260C466.575 282.652 500 283.906 500 318.066C500 338.066 482.093 358.066 460 358.066H140C117.907 358.066 100 338.066 100 318.066C100 283.906 127.624 281.547 170.166 260Z" fill="black" fill-opacity="0.1"/>
<path d="M300 22C247.534 22 205 75.1685 205 140.75C205 206.332 247.534 259.5 300 259.5C352.466 259.5 395 206.332 395 140.75C395 75.1685 352.466 22 300 22ZM300 243.667C256.348 243.667 220.833 197.496 220.833 140.75C220.833 84.0036 256.348 37.8333 300 37.8333C343.652 37.8333 379.167 84.0036 379.167 140.75C379.167 197.496 343.652 243.667 300 243.667Z" fill="black" fill-opacity="0.1"/>
</g>
<defs>
<clipPath id="clip0">
<rect width="600" height="400" fill="white"/>
</clipPath>
</defs>
</svg>
