<svg width="600" height="400" viewBox="0 0 600 400" fill="none" xmlns="http://www.w3.org/2000/svg">
<g clip-path="url(#clip0)">
<path d="M223.142 47.2162C177.705 73.4494 167.454 140.761 200.245 197.557C233.036 254.352 296.455 279.13 341.892 252.897C387.33 226.664 397.58 159.352 364.79 102.557C331.999 45.7614 268.58 20.9829 223.142 47.2162ZM333.976 239.185C296.172 261.011 242.33 238.784 213.957 189.64C185.584 140.496 193.255 82.7544 231.059 60.9282C268.863 39.1021 322.704 61.3295 351.078 110.473C379.451 159.617 371.78 217.359 333.976 239.185Z" fill="black"/>
<path d="M170.057 289.81C184.883 302.802 170.057 289.81 184.883 302.802C143.016 342.637 138.297 349.222 142.777 361.532C145.876 370.046 158 377.275 168.412 373.485L469.113 264.039C479.524 260.25 484.165 246.919 481.066 238.405C476.586 226.095 453.109 225.886 405.599 220.542C411.21 202.037 405.599 220.542 411.21 202.037C456.338 209.718 488.176 199.464 499.86 231.564C506.7 250.358 496.714 275.277 475.953 282.833L175.251 392.279C154.491 399.836 130.823 387.166 123.983 368.373C112.299 336.272 137.451 324.607 170.057 289.81Z" fill="black"/>
<path d="M170.166 260C179.654 277.28 170.166 260 179.654 277.28C126.688 300.393 120.001 304.966 120.001 318.066C120.001 327.126 128.921 338.066 140.001 338.066H460C471.08 338.066 480 327.126 480 318.066C480 304.966 458.011 296.74 415.193 275.47C426.796 260 415.193 275.47 426.796 260C466.575 282.652 500 283.906 500 318.066C500 338.066 482.093 358.066 460 358.066H140C117.907 358.066 100 338.066 100 318.066C100 283.906 127.624 281.547 170.166 260Z" fill="black" fill-opacity="0.1"/>
<path d="M300 22C247.534 22 205 75.1685 205 140.75C205 206.332 247.534 259.5 300 259.5C352.466 259.5 395 206.332 395 140.75C395 75.1685 352.466 22 300 22ZM300 243.667C256.348 243.667 220.833 197.496 220.833 140.75C220.833 84.0036 256.348 37.8333 300 37.8333C343.652 37.8333 379.167 84.0036 379.167 140.75C379.167 197.496 343.652 243.667 300 243.667Z" fill="black" fill-opacity="0.1"/>
</g>
<defs>
<clipPath id="clip0">
<rect width="600" height="400" fill="white"/>
</clipPath>
</defs>
</svg>
