<svg width="600" height="400" viewBox="0 0 600 400" fill="none" xmlns="http://www.w3.org/2000/svg">
<g clip-path="url(#clip0)">
<path d="M300 22C247.534 22 205 75.1685 205 140.75C205 206.332 247.534 259.5 300 259.5C352.466 259.5 395 206.332 395 140.75C395 75.1685 352.466 22 300 22ZM300 243.667C256.348 243.667 220.833 197.496 220.833 140.75C220.833 84.0036 256.348 37.8333 300 37.8333C343.652 37.8333 379.167 84.0036 379.167 140.75C379.167 197.496 343.652 243.667 300 243.667Z" fill="black"/>
<path d="M169.057 289.81C183.883 302.802 169.057 289.81 183.883 302.802C142.016 342.637 137.297 349.222 141.777 361.532C144.876 370.046 157 377.275 167.412 373.485L468.113 264.039C478.524 260.25 483.165 246.919 480.066 238.405C475.586 226.095 452.109 225.886 404.599 220.542C410.21 202.037 404.599 220.542 410.21 202.037C455.338 209.718 487.176 199.464 498.86 231.564C505.7 250.358 495.714 275.277 474.953 282.833L174.251 392.279C153.491 399.836 129.823 387.166 122.983 368.373C111.299 336.272 136.451 324.607 169.057 289.81Z" fill="black"/>
<path d="M170.166 260C179.654 277.28 170.166 260 179.654 277.28C126.688 300.393 120.001 304.966 120.001 318.066C120.001 327.126 128.921 338.066 140.001 338.066H460C471.08 338.066 480 327.126 480 318.066C480 304.966 458.011 296.74 415.193 275.47C426.796 260 415.193 275.47 426.796 260C466.575 282.652 500 283.906 500 318.066C500 338.066 482.093 358.066 460 358.066H140C117.907 358.066 100 338.066 100 318.066C100 283.906 127.624 281.547 170.166 260Z" fill="black" fill-opacity="0.1"/>
<path d="M300 22C247.534 22 205 75.1685 205 140.75C205 206.332 247.534 259.5 300 259.5C352.466 259.5 395 206.332 395 140.75C395 75.1685 352.466 22 300 22ZM300 243.667C256.348 243.667 220.833 197.496 220.833 140.75C220.833 84.0036 256.348 37.8333 300 37.8333C343.652 37.8333 379.167 84.0036 379.167 140.75C379.167 197.496 343.652 243.667 300 243.667Z" fill="black" fill-opacity="0.1"/>
</g>
<defs>
<clipPath id="clip0">
<rect width="600" height="400" fill="white"/>
</clipPath>
</defs>
</svg>
