<svg width="600" height="400" viewBox="0 0 600 400" fill="none" xmlns="http://www.w3.org/2000/svg">
<g clip-path="url(#clip0)">
<path d="M240.625 37.9095C195.188 64.1427 184.937 131.455 217.728 188.25C250.518 245.045 313.938 269.824 359.375 243.59C404.812 217.357 415.063 150.045 382.272 93.25C349.482 36.4547 286.062 11.6762 240.625 37.9095ZM351.458 229.878C313.654 251.705 259.813 229.477 231.44 180.333C203.066 131.189 210.738 73.4477 248.542 51.6215C286.346 29.7954 340.187 52.0228 368.56 101.167C396.934 150.31 389.262 208.052 351.458 229.878Z" fill="black"/>
<path d="M186.475 194.19C189.481 213.673 186.475 194.19 189.481 213.673C131.803 217.276 123.956 219.287 119.475 231.597C116.376 240.111 121.017 253.442 131.429 257.231L432.13 366.678C442.541 370.467 454.665 363.238 457.764 354.724C462.244 342.414 444.395 327.164 411.434 292.531C427.628 281.963 411.434 292.531 427.628 281.963C457.26 316.854 488.241 329.464 476.558 361.564C469.717 380.358 446.05 393.028 425.289 385.471L124.588 276.025C103.827 268.469 93.8402 243.55 100.681 224.756C112.364 192.656 139.129 199.888 186.475 194.19Z" fill="black"/>
<path d="M170.166 260C179.654 277.28 170.166 260 179.654 277.28C126.688 300.393 120.001 304.966 120.001 318.066C120.001 327.126 128.921 338.066 140.001 338.066H460C471.08 338.066 480 327.126 480 318.066C480 304.966 458.011 296.74 415.193 275.47C426.796 260 415.193 275.47 426.796 260C466.575 282.652 500 283.906 500 318.066C500 338.066 482.093 358.066 460 358.066H140C117.907 358.066 100 338.066 100 318.066C100 283.906 127.624 281.547 170.166 260Z" fill="black" fill-opacity="0.1"/>
<path d="M300 22C247.534 22 205 75.1685 205 140.75C205 206.332 247.534 259.5 300 259.5C352.466 259.5 395 206.332 395 140.75C395 75.1685 352.466 22 300 22ZM300 243.667C256.348 243.667 220.833 197.496 220.833 140.75C220.833 84.0036 256.348 37.8333 300 37.8333C343.652 37.8333 379.167 84.0036 379.167 140.75C379.167 197.496 343.652 243.667 300 243.667Z" fill="black" fill-opacity="0.1"/>
</g>
<defs>
<clipPath id="clip0">
<rect width="600" height="400" fill="white"/>
</clipPath>
</defs>
</svg>
