<svg width="600" height="400" viewBox="0 0 600 400" fill="none" xmlns="http://www.w3.org/2000/svg">
<g clip-path="url(#clip0)">
<g opacity="0.1">
<path d="M458.928 365.786V214.894H452.346V181.061C452.346 176.185 448.892 172.106 444.245 170.997V150.437H417.916V309.48H444.245V309.477H445.764V365.785H416.692V387.518H488V365.785H458.928V365.786H458.928Z" fill="black"/>
<path d="M388.805 365.56L302.732 375.665V387.519H388.805V365.56Z" fill="black"/>
<path d="M487.999 392.231H302.732V412.976H487.999V392.231Z" fill="black"/>
</g>
<path d="M183.924 229.825C216.737 229.825 243.337 203.225 243.337 170.413C243.337 137.6 216.737 111 183.924 111C151.112 111 124.512 137.6 124.512 170.413C124.512 203.225 151.112 229.825 183.924 229.825Z" fill="black" fill-opacity="0.1"/>
<path d="M332.302 314.131L236.733 314.055L233.51 314.044V298.246L233.398 285.021C233.398 253.432 207.789 227.822 176.199 227.822C175.128 227.822 174.066 227.858 173.009 227.916L172.929 227.822C143.145 227.823 119 251.968 119 281.751V434.062H233.51V369.179L231.996 369.06C231.888 369.05 231.861 369.061 231.794 369.061C224.046 369.061 216.621 365.798 211.389 360.086L164.911 309.353C163.429 307.736 163.539 305.225 165.156 303.744C166.772 302.262 169.283 302.371 170.765 303.989L217.242 354.721C221.018 358.844 226.345 361.365 231.953 361.447C232.326 361.451 237.417 361.525 237.417 361.525H332.302C345.39 361.525 356 350.915 356 337.826C355.999 324.74 345.389 314.131 332.302 314.131Z" fill="black" fill-opacity="0.1"/>
<path d="M127.924 169.825C160.737 169.825 187.337 143.225 187.337 110.413C187.337 77.5999 160.737 51 127.924 51C95.1117 51 68.5117 77.5999 68.5117 110.413C68.5117 143.225 95.1117 169.825 127.924 169.825Z" fill="black"/>
<path d="M276.302 254.131L180.733 254.055L177.51 254.044V238.246L177.398 225.021C177.398 193.432 151.789 167.822 120.199 167.822C119.128 167.822 118.066 167.858 117.009 167.916L116.929 167.822C87.1451 167.823 63 191.968 63 221.751V445L177.51 505.438V309.179L175.996 309.06C175.888 309.05 175.861 309.061 175.794 309.061C168.046 309.061 160.621 305.798 155.389 300.086L108.911 249.353C107.429 247.736 107.539 245.225 109.156 243.744C110.772 242.262 113.283 242.371 114.765 243.989L161.242 294.721C165.018 298.844 170.345 301.365 175.953 301.447C176.326 301.451 181.417 301.525 181.417 301.525H276.302C289.39 301.525 300 290.915 300 277.826C299.999 264.74 289.389 254.131 276.302 254.131Z" fill="black"/>
</g>
<defs>
<clipPath id="clip0">
<rect width="600" height="400" fill="white"/>
</clipPath>
</defs>
</svg>
