<svg width="600" height="400" viewBox="0 0 600 400" fill="none" xmlns="http://www.w3.org/2000/svg">
<g clip-path="url(#clip0)">
<g opacity="0.1">
<path d="M458.928 365.786V214.894H452.346V181.061C452.346 176.185 448.892 172.106 444.245 170.996V150.437H417.916V309.48H444.245V309.477H445.764V365.785H416.692V387.518H488V365.785H458.928V365.786H458.928Z" fill="black"/>
<path d="M388.805 365.56L302.732 375.665V387.519H388.805V365.56Z" fill="black"/>
<path d="M487.999 392.231H302.732V412.976H487.999V392.231Z" fill="black"/>
</g>
<path d="M183.924 229.825C216.737 229.825 243.337 203.225 243.337 170.413C243.337 137.6 216.737 111 183.924 111C151.112 111 124.512 137.6 124.512 170.413C124.512 203.225 151.112 229.825 183.924 229.825Z" fill="black" fill-opacity="0.1"/>
<path d="M332.302 314.131L236.733 314.055L233.51 314.044V298.246L233.398 285.021C233.398 253.432 207.789 227.822 176.199 227.822C175.128 227.822 174.066 227.858 173.009 227.916L172.929 227.822C143.145 227.823 119 251.968 119 281.751V434.062H233.51V369.179L231.996 369.06C231.888 369.05 231.861 369.061 231.794 369.061C224.046 369.061 216.621 365.798 211.389 360.086L164.911 309.353C163.429 307.736 163.539 305.225 165.156 303.744C166.772 302.262 169.283 302.371 170.765 303.989L217.242 354.721C221.018 358.844 226.345 361.365 231.953 361.447C232.326 361.451 237.417 361.525 237.417 361.525H332.302C345.39 361.525 356 350.915 356 337.826C355.999 324.74 345.389 314.131 332.302 314.131Z" fill="black" fill-opacity="0.1"/>
<path d="M240.924 319.825C273.737 319.825 300.337 293.225 300.337 260.413C300.337 227.6 273.737 201 240.924 201C208.112 201 181.512 227.6 181.512 260.413C181.512 293.225 208.112 319.825 240.924 319.825Z" fill="black"/>
<path d="M389.302 404.131L293.733 404.055L290.51 404.044V388.246L290.398 375.021C290.398 343.432 264.789 317.822 233.199 317.822C232.128 317.822 231.066 317.858 230.009 317.916L229.929 317.822C200.145 317.823 176 341.968 176 371.751V595L290.51 655.438V459.179L288.996 459.06C288.888 459.05 288.861 459.061 288.794 459.061C281.046 459.061 273.621 455.798 268.389 450.086L221.911 399.353C220.429 397.736 220.539 395.225 222.156 393.744C223.772 392.262 226.283 392.371 227.765 393.989L274.242 444.721C278.018 448.844 283.345 451.365 288.953 451.447C289.326 451.451 294.417 451.525 294.417 451.525H389.302C402.39 451.525 413 440.915 413 427.826C412.999 414.74 402.389 404.131 389.302 404.131Z" fill="black"/>
</g>
<defs>
<clipPath id="clip0">
<rect width="600" height="400" fill="white"/>
</clipPath>
</defs>
</svg>
